<?xml version="1.0" encoding="UTF-8"?>
<svg id="Layer_1" xmlns="http://www.w3.org/2000/svg" version="1.1" viewBox="0 0 2782.24 3214.78">
  <!-- Generator: Adobe Illustrator 29.7.1, SVG Export Plug-In . SVG Version: 2.1.1 Build 8)  -->
  <path d="M1009.96,559.37c11.27,46.4,22.46,94.28,36.01,139.99,7.08,23.89,12.8,42.86,27.68,63.32,1.29,1.77,15.53,20.31,17.81,17.68l.77-85.26c-48.9-165.09-126.13-336.63-131.8-511.2-.5-15.41-1.44-33.77,6.2-47.38,30.63-.81,60.81,1.48,91.33-.17,94.53-5.12,187.89-20.98,283.05-23.95,62.86-1.96,136.94-4.6,198.49,7.43,21.11,4.12,49.44,14.91,69.48,16.52,9.29.74,13.68-.76,20.13-7.33,10.36-10.56,12.67-26.91,11.39-41.19-1.57-17.54-21.37-19.33-35.67-21.33-29.37-4.1-64.14-5.29-93.83-6.17-69.11-2.05-136.56,5.71-204.9,15.18-86.93,12.05-174.09,33.5-261.15,41.85-23.61,2.27-52.18,1.33-74.88,6.12-17.78,3.76-20.7,24.77-21.66,40.34-2.4,38.9,3.78,88.78,8.05,128.03,9.79,90.09,32.13,179.62,53.48,267.52h.02Z" fill="#1989ac"/>
  <path d="M1136.66,1056.67c30.21,7.22,63.7,15.38,92.8.18-18.46-11.08-34.89-25.46-55.01-33.97-20.67-8.73-45.05-13.86-66.95-19.05-142.22-33.65-282.33-53.1-417.98-111.02-18.28-7.8-65.29-27.71-76.04-42.96-5.75-8.16.4-16.72,4.49-24.53,8.8-16.84,20.52-33.26,29.69-50.31,47.15-87.6,81.56-183.2,128.31-271.69,29.11-55.11,66.6-121.8,108.01-167.99,12.65-14.11,28.14-27.46,40.03-41.97,11.26-13.74,16.04-28.03,2.14-42.66-4.62-4.86-19.47-15.05-25.83-16.66-11.48-2.91-18.84,6.06-25.79,13.84-16.84,18.83-34.49,46.15-48.44,67.56-90.49,138.82-130.07,306.42-197.41,456.59-7.15,15.89-29.59,55-30.14,69.98-.55,15.14,26.7,30.86,38.26,37.52,103.53,59.63,223.91,96.49,337.9,131.1,53.05,16.1,108.1,33.19,161.95,46.05h.01Z" fill="#1989ac"/>
  <path d="M1136.66,1056.67c30.21,7.22,63.7,15.38,92.8.18-18.46-11.08-34.89-25.46-55.01-33.97-20.67-8.73-45.05-13.86-66.95-19.05-142.22-33.65-282.33-53.1-417.98-111.02-18.28-7.8-65.29-27.71-76.04-42.96-5.75-8.16.4-16.72,4.49-24.53,8.8-16.84,20.52-33.26,29.69-50.31,47.15-87.6,81.56-183.2,128.31-271.69,29.11-55.11,66.6-121.8,108.01-167.99,12.65-14.11,28.14-27.46,40.03-41.97,11.26-13.74,16.04-28.03,2.14-42.66-4.62-4.86-19.47-15.05-25.83-16.66-11.48-2.91-18.84,6.06-25.79,13.84-16.84,18.83-34.49,46.15-48.44,67.56-90.49,138.82-130.07,306.42-197.41,456.59-7.15,15.89-29.59,55-30.14,69.98-.55,15.14,26.7,30.86,38.26,37.52,103.53,59.63,223.91,96.49,337.9,131.1,53.05,16.1,108.1,33.19,161.95,46.05h.01Z" fill="#1989ac"/>
  <path d="M2156.15,715.18c-85.81-47.86-178.25-80.29-271.91-109.09-61.08-18.78-123.9-37.86-185.55-54.45-28.07-7.55-69.96-20.29-98.42-17.98-8.77.71-20.38,2.57-27.78,7.19-.22,3.13,29.01,21.6,33.67,24.32,32.13,18.72,67.29,25.66,103.27,33.73,142.29,31.9,288.65,53.54,421.39,116.61,13.84,6.58,43.69,20.89,53.68,31.32,8.68,9.07,3.4,14.13-1.52,23.56-16.49,31.61-35.61,60.86-51.38,93.62-41.45,86.11-75.88,175.7-122.97,259.03-29.17,51.62-61.04,105.15-100.66,149.34-9.52,10.61-42.32,40.31-43.47,52.61-1.12,11.96,8.57,23.71,17.64,30.19,15.02,10.73,25.51,15.43,39.34.71,18.67-19.87,39.54-53.14,54.39-76.61,83.17-131.5,120.66-277.45,180.12-418.88,11.92-28.36,26.73-55.32,38.64-83.36,2.16-5.1,8.19-17.84,7.18-22.45-3.21-14.53-33-32.33-45.68-39.39l.02-.02Z" fill="#1989ac"/>
  <path d="M1771.4,964.93c-10.18-39.32-24.55-109.3-52.27-138.23-2.85-2.97-7.5-5.78-10.16-9.34-.84.57-1.29,2.62-1.4,3.59-2.92,26.33-.15,54.26-1.01,80.82,48.26,159.28,118.19,319.32,130.91,487.09,1.31,17.3,2.93,40.98.89,57.87-.74,6.07-2.94,11.82-5.01,17.49-30.39-.77-60.87-3.17-91.35-1.86-56.54,2.44-115.41,11.76-172.02,16.98-81.36,7.51-161.27,9.68-243.04,7.05-50.51-1.63-85.3-15.75-132.41-23.59-12.47-2.08-18.38-.86-26.58,9.53-9.44,11.96-14.48,42.62-.97,53.02,5.76,4.43,21.51,5.87,29.12,6.88,156.73,20.82,300.07-10.36,453.16-35.58,49.21-8.11,92.94-13.44,142.7-17.3,17.24-1.34,45.62-.52,53.7-18.3,9.89-21.74,3.88-88.06,1.8-114.18-10.04-126.05-44.35-259.48-76.07-381.93h.01Z" fill="#1989ac"/>
  <path d="M1499.99,1146.37c18.63-20.15,35.52-43.85,38.48-72.01-12.46,9.14-27.29,14.31-40.66,21.83-32.65,18.37-61.46,52.6-86.84,80.16-86.44,93.84-167.14,192.72-268.01,271.99-18.72,14.71-69.6,53.35-91.21,56.79-10.54,1.68-10.62-.13-15.68-7.84-9.77-14.91-17.59-31.84-26.78-47.22-55.6-92.99-129.18-176.45-184.97-269.03-32.26-53.54-69.57-119.41-88.09-178.91-4.82-15.49-10.61-52.25-22.4-61.6-14.61-11.58-33.42-4.78-47.05,4.6-16.94,11.66-11.99,19.6-6.02,36.48,33.64,95.1,103.57,189.62,165.79,268.21,53.17,67.15,113.41,131.62,162.77,201.23,8.86,12.49,33.69,55.23,43.49,61.51,19.62,12.56,55.45-12.01,72.61-22.78,103.35-64.84,186.89-142.8,274.61-226.39,39.36-37.51,83.33-77.36,119.99-117.01h-.03Z" fill="#1989ac"/>
  <path d="M1354,399.38c-33.02,32.36-74.46,64.66-90.27,109.73-1.08,3.09-4.06,10.5-2.78,13.22,2.29,4.87,5.33-.89,7.59-2.4,8.28-5.56,17.44-8.47,25.95-13.05,31.25-16.8,53.6-40.88,77.49-66.51,100.07-107.32,192.35-225.38,313.17-310.83,13.46-9.52,28.7-20.17,43.29-27.71,9.26-4.78,18.98-10.29,29.81-8.26,21.24,36.39,42.22,72.67,65.99,107.5,76.85,112.64,166.41,220.47,221.4,346.6,11.25,25.81,17.06,50.98,25.56,77.44,5.05,15.73,8.21,36.47,27.72,38.28,16.42,1.52,47.51-9.04,45.43-29.44-1.33-13-17.48-46.01-23.71-59.28-46.21-98.41-113.94-185-182.2-268.8-43.92-53.92-94.4-107.35-133.39-164.61-9.01-13.24-27.38-48.18-39.25-55.75-18.77-11.98-54.94,13.08-71.25,23.42-51.94,32.95-104.88,71.4-151.1,111.9-64.72,56.72-127.97,118.27-189.46,178.54h0Z" fill="#1989ac"/>
  <path d="M1517.47,794.35c-.21-4.06-5.41-10.54-6.55-14.94-2.04-7.88-1.61-16.32-4.18-24.82-6.07-20.07-28.62-46.11-46.96-56.04-8.63-4.68-15.23-4.08-24.3-6.7-5.58-1.61-10.47-4.55-15.97-6.03-23.92-6.42-58.16-1.36-79.33,11.73-8.62,5.33-7.23,9.61-13.15,15.85-6.35,6.7-15.64,11.66-22.06,18.94-12.52,14.21-21.28,40.08-23.21,58.79-1.39,13.47,3.68,15.94,6.26,27.19,1.52,6.61,1.37,13.34,2.96,20.04,5.11,21.56,25.43,46.19,43.6,58.4,11.4,7.66,17.81,6.73,29.91,10.09,31.82,8.84,46.49,16.51,79.51,1.52,20.78-9.44,57.8-46.5,66.25-67.75,5.69-14.31,7.87-30.94,7.23-46.26h0ZM1380.93,840.39c-29.92-1.13-55.47-23.78-84.21-29.78-4.17-.87-9.37,1.29-11.24-3.76,23.12-9.83,40.89-28.78,62.08-41.91,15.28-9.47,31.51-17.38,49.92-11.57v3.97c-5.03-1.57-7.99-.59-12.77.75-20.78,5.84-34.54,29.47-51.24,41.75,17.67,11.79,33.21,27.82,54.21,33.79,2.4.68,11.12,1.57,11.61,1.89.14.09.77,2.17,1.18,2.82-6.53.66-12.89,2.3-19.55,2.05h.01ZM1395.96,806.37c6.2,4.48,15.63.98,21.88-1.85l2.63,2.33c-13.36,16.22-50.89,21.06-51.91-7.15-1-27.76,52.04-36.82,54.92-7.35-1.29,1.39-19.27-12.88-29.06-4.56-5.01,4.27-3.58,14.89,1.54,18.58h0ZM1467.16,820.54c-15.73,10.66-39.28,32.26-58.19,34.81-6.54.88-14.75-.65-21.5,0v-2.98c36.79-3.14,45.97-43.97,76.38-56.95l.61-2.05c-28.45-13.92-46.43-48.31-80.87-50.15l-1.13-3.85c13.92-.91,26.41-1.25,39.99,2.5,32.22,8.9,58.33,44.38,90.74,52.26.89.22,1.96.85,2.81,1.16-.51.82-.11,1.96.47,3.06-17.67,2.11-34.77,12.33-49.32,22.19h.01Z" fill="#1989ac"/>
  <g>
    <path d="M462.6,1700.24c4.47,6.1,5.28,12.81,2.44,20.13l-167.14,412.97c-2.04,4.48-4.79,7.83-8.24,10.06-3.46,2.24-7.42,3.36-11.89,3.36h-53.68c-10.17,0-16.88-4.47-20.13-13.42l-167.14-412.97c-3.26-6.91-2.65-13.62,1.83-20.13,4.47-6.5,10.37-9.76,17.69-9.76h203.74c5.69,0,10.67,2.13,14.95,6.41s6.4,9.46,6.4,15.55v44.53c0,6.1-2.13,11.29-6.4,15.55s-9.25,6.41-14.95,6.41h-102.48l93.33,234.85,122.61-309.88c3.25-8.94,9.96-13.42,20.13-13.42h51.24c7.72,0,13.62,3.26,17.69,9.76Z"/>
    <path d="M541.8,1690.48c6.06,0,11.1,2.13,15.15,6.41,4.04,4.27,6.06,9.25,6.06,14.94v112.85c0,6.1-2.02,11.29-6.06,15.55-4.04,4.27-9.08,6.41-15.15,6.41h-46.04c-5.66,0-10.61-2.13-14.85-6.41-4.24-4.27-6.36-9.46-6.36-15.55v-112.85c0-5.69,2.12-10.67,6.36-14.94,4.24-4.27,9.19-6.41,14.85-6.41h46.04ZM541.8,1871.65c6.06,0,11.1,2.13,15.15,6.41,4.04,4.27,6.06,9.46,6.06,15.55v228.14c0,5.7-2.02,10.68-6.06,14.95-4.04,4.27-9.08,6.41-15.15,6.41h-46.04c-5.66,0-10.61-2.13-14.85-6.41-4.24-4.27-6.36-9.25-6.36-14.95v-228.14c0-6.1,2.12-11.29,6.36-15.55,4.24-4.27,9.19-6.41,14.85-6.41h46.04Z"/>
    <path d="M797.19,1695.36c4.88,4.88,7.32,10.37,7.32,16.47v46.36c0,4.88-1.64,9.36-4.91,13.42-3.27,4.07-7.36,6.51-12.26,7.32-26.16,6.1-48.44,18.51-66.82,37.21-25.34,27.25-38.01,61.41-38.01,102.48,0,21.15,3.16,40.06,9.5,56.73,6.33,16.68,15.83,31.72,28.51,45.14,9.4,9.76,19.51,17.59,30.34,23.49,10.83,5.9,22.99,10.47,36.49,13.72,4.9.82,8.99,3.26,12.26,7.32,3.27,4.07,4.91,8.54,4.91,13.42l-.61,46.36c0,6.51-2.64,12-7.91,16.47-4.06,3.26-8.52,4.88-13.38,4.88h-3.64c-23.92-4.47-46.03-11.99-66.3-22.57-20.28-10.57-38.73-24.6-55.35-42.09-42.18-43.51-63.26-97.8-63.26-162.87s21.14-119.96,63.44-163.48c32.94-34.56,73.6-55.91,122-64.05,6.5-1.22,12.4.21,17.69,4.27ZM1052.17,1905.81c.4,2.04.61,4.07.61,6.1v6.71c0,9.36-.61,19.73-1.83,31.11-6.1,51.65-26.64,95.57-61.61,131.76-33.35,34.57-74.02,56.12-122,64.66h-3.66c-4.88,0-9.56-1.62-14.03-4.88-4.88-4.88-7.32-10.37-7.32-16.47v-46.36c0-4.88,1.62-9.35,4.88-13.42,3.25-4.06,7.32-6.5,12.2-7.32,26.84-6.1,49-18.5,66.49-37.21,14.23-15.04,24.4-32.33,30.5-51.85h-129.32c-6.1,0-11.19-2.03-15.25-6.1-4.07-4.06-6.1-9.15-6.1-15.25l-.61-43.31c0-5.69,2.06-10.67,6.2-14.95,4.14-4.27,9.3-6.4,15.51-6.4h204c5.69,0,10.57,1.93,14.64,5.79,4.06,3.87,6.3,8.64,6.71,14.33v3.05ZM859.41,1778.93c-4.88-.81-8.95-3.25-12.2-7.32-3.26-4.06-4.88-8.54-4.88-13.42v-46.36c0-6.1,2.44-11.59,7.32-16.47,5.28-4.06,11.18-5.49,17.69-4.27,47.98,8.14,88.65,29.49,122,64.05,17.08,17.9,30.9,38.23,41.48,61,4.06,6.51,3.66,13.22-1.22,20.13-4.07,6.92-9.97,10.37-17.69,10.37h-51.85c-8.14,0-14.24-3.45-18.3-10.37-2.44-3.66-4.88-7.11-7.32-10.37-2.44-3.25-5.29-6.5-8.54-9.76-18.3-18.7-40.47-31.11-66.49-37.21Z"/>
    <path d="M1144.9,1690.48c6.06,0,11.1,2.13,15.14,6.41,4.04,4.27,6.06,9.25,6.06,14.94v112.85c0,6.1-2.02,11.29-6.06,15.55-4.04,4.27-9.08,6.41-15.14,6.41h-46.04c-5.66,0-10.61-2.13-14.85-6.41-4.24-4.27-6.36-9.46-6.36-15.55v-112.85c0-5.69,2.12-10.67,6.36-14.94,4.24-4.27,9.19-6.41,14.85-6.41h46.04ZM1144.9,1871.65c6.06,0,11.1,2.13,15.14,6.41,4.04,4.27,6.06,9.46,6.06,15.55v228.14c0,5.7-2.02,10.68-6.06,14.95-4.04,4.27-9.08,6.41-15.14,6.41h-46.04c-5.66,0-10.61-2.13-14.85-6.41-4.24-4.27-6.36-9.25-6.36-14.95v-228.14c0-6.1,2.12-11.29,6.36-15.55,4.24-4.27,9.19-6.41,14.85-6.41h46.04Z"/>
    <path d="M1273.98,1690.48c5.65,0,10.6,2.13,14.84,6.41,4.24,4.27,6.37,9.25,6.37,14.94v408.7c0,5.7-2.13,10.67-6.37,14.95-4.24,4.27-9.19,6.41-14.84,6.41h-46.04c-5.66,0-10.61-2.14-14.85-6.41-4.24-4.27-6.36-9.25-6.36-14.95v-408.7c0-5.69,2.12-10.67,6.36-14.94,4.24-4.27,9.19-6.41,14.85-6.41h46.04ZM1497.09,2054.65c6.1,0,11.18,2.13,15.25,6.41,4.06,4.27,6.1,9.25,6.1,14.94v44.53c0,5.7-2.04,10.67-6.1,14.95-4.07,4.27-9.15,6.41-15.25,6.41h-142.13c-6.1,0-11.19-2.14-15.25-6.41-4.07-4.27-6.1-9.25-6.1-14.95v-44.53c0-5.69,2.03-10.67,6.1-14.94,4.06-4.27,9.15-6.41,15.25-6.41h142.13Z"/>
    <path d="M1954.77,2133.34c-4.48,6.51-10.37,9.76-17.69,9.76h-406.26c-7.73,0-13.63-3.23-17.69-9.69-4.48-6.46-5.09-13.12-1.83-19.99l18.91-44.22c1.62-4.03,4.17-7.26,7.62-9.68,3.45-2.42,7.42-3.64,11.89-3.64h284.26l-18.3-44-81.74-195.52-81.74,195.52c-1.63,4.08-4.17,7.23-7.62,9.47-3.46,2.25-7.42,3.36-11.9,3.36h-51.24c-7.73,0-13.83-3.26-18.3-9.78-4.07-6.11-4.68-12.83-1.83-20.17l123.83-290.85c1.62-4.48,4.17-7.83,7.62-10.08,3.45-2.24,7.42-3.36,11.9-3.36h58.56c9.35,0,15.86,4.48,19.52,13.42l173.85,409.31c2.84,6.51,2.23,13.22-1.83,20.13Z"/>
    <path d="M2340.19,1690.48c5.65,0,10.6,2.13,14.84,6.41,4.24,4.27,6.37,9.25,6.37,14.94v408.7c0,5.7-2.13,10.67-6.37,14.95-4.24,4.27-9.19,6.41-14.84,6.41h-53.33c-7.28,0-13.13-2.84-17.58-8.54l-298.29-408.7c-5.29-7.32-5.9-14.84-1.83-22.57,3.63-7.72,9.89-11.59,18.79-11.59h53.31c7.67,0,13.33,2.85,16.97,8.54l214.72,290.97v-278.16c0-5.69,2.01-10.67,6.05-14.94,4.04-4.27,9.09-6.41,15.15-6.41h46.04ZM2033.97,1986.33c5.65,0,10.6,2.04,14.84,6.1,4.24,4.07,6.37,9.15,6.37,15.25v112.85c0,5.7-2.13,10.67-6.37,14.95-4.24,4.27-9.19,6.41-14.84,6.41h-46.04c-5.66,0-10.61-2.14-14.85-6.41-4.24-4.27-6.36-9.25-6.36-14.95v-112.85c0-6.1,2.12-11.18,6.36-15.25,4.24-4.06,9.19-6.1,14.85-6.1h46.04Z"/>
    <path d="M2456.92,1690.48c6.1,0,11.29,2.13,15.56,6.41s6.4,9.46,6.4,15.55v44.53c0,6.1-2.13,11.29-6.4,15.55s-9.46,6.41-15.56,6.41h-62.83c-5.7,0-10.67-2.13-14.94-6.41-4.27-4.27-6.41-9.46-6.41-15.55v-44.53c0-6.1,2.13-11.29,6.41-15.55,4.27-4.27,9.25-6.41,14.94-6.41h62.83ZM2729.59,1690.48c5.69,0,10.68,2.13,14.95,6.41,4.27,4.27,6.41,9.46,6.41,15.55v44.53c0,6.1-2.13,11.29-6.41,15.55-4.27,4.27-9.25,6.41-14.95,6.41h-122.61v346.48c0,5.7-2.14,10.68-6.41,14.95s-9.25,6.41-14.95,6.41h-46.97c-6.1,0-11.29-2.14-15.55-6.41-4.27-4.27-6.41-9.25-6.41-14.95v-412.97c0-6.1,2.13-11.29,6.41-15.55,4.27-4.27,9.46-6.41,15.55-6.41h190.93Z"/>
  </g>
  <g>
    <path d="M252.27,2238.97c5.71,4.4,8.58,10.34,8.58,17.82v51.48c0,4.85-1.66,9.35-4.98,13.53-3.32,4.19-7.41,7.16-12.28,8.91-6.2,1.32-11.07,2.87-14.6,4.62-17.71,7.92-32.75,18.71-45.14,32.34-25.22,28.61-37.84,65.57-37.84,110.88s12.61,82.73,37.84,110.88c15.49,17.6,35.4,29.93,59.74,36.96,4.87,1.32,8.96,4.07,12.28,8.25,3.32,4.19,4.98,8.69,4.98,13.53v52.14c0,7.49-2.87,13.43-8.58,17.82-3.96,3.53-9.02,5.28-15.18,5.28h-4.62c-47.09-10.12-86.9-33-119.46-68.64-41.81-47.08-62.7-105.82-62.7-176.22s20.89-129.13,62.7-176.22c32.56-36.07,72.37-58.74,119.46-67.98,7.03-1.75,13.63-.22,19.8,4.62ZM321.57,2325.43c-6.17-.88-11-3.4-14.52-7.59-3.53-4.18-5.28-9.34-5.28-15.51v-48.18c0-7.48,2.64-13.2,7.92-17.16,5.28-4.84,11.44-6.82,18.48-5.94,37.84,6.17,71.5,19.58,100.98,40.26,38.28,27.72,65.34,64.46,81.18,110.22,2.64,7.49,1.75,14.52-2.64,21.12-4.85,6.6-11.22,9.9-19.14,9.9h-52.8c-10.13,0-17.39-4.62-21.78-13.86-9.68-22.87-24.42-41.14-44.22-54.78-15.41-9.67-31.46-15.84-48.18-18.48ZM488.55,2544.55c7.92,0,14.29,3.3,19.14,9.9,4.39,6.6,5.28,13.64,2.64,21.12-15.84,45.77-42.9,82.5-81.18,110.22-29.48,20.69-63.14,34.1-100.98,40.26h-3.3c-6.17,0-11.22-1.98-15.18-5.94-5.28-3.96-7.92-9.67-7.92-17.16v-48.18c0-6.16,1.75-11.32,5.28-15.51,3.52-4.18,8.14-6.7,13.86-7.59,18.48-2.64,34.75-8.8,48.84-18.48,19.8-13.63,34.54-31.9,44.22-54.78,4.39-9.24,11.65-13.86,21.78-13.86h52.8Z"/>
    <path d="M961.63,2710.21c-4.85,7.04-11.22,10.56-19.14,10.56h-439.56c-8.36,0-14.75-3.5-19.14-10.49-4.85-6.99-5.51-14.2-1.98-21.63l20.46-47.85c1.75-4.36,4.51-7.86,8.25-10.48,3.73-2.62,8.02-3.94,12.87-3.94h307.56l-19.8-47.6-88.44-211.55-88.44,211.55c-1.76,4.41-4.52,7.83-8.25,10.25-3.74,2.43-8.03,3.64-12.87,3.64h-55.44c-8.36,0-14.96-3.53-19.8-10.58-4.4-6.61-5.06-13.88-1.98-21.82l133.98-314.69c1.75-4.85,4.51-8.48,8.25-10.9,3.73-2.42,8.02-3.64,12.87-3.64h63.36c10.12,0,17.16,4.85,21.12,14.52l188.1,442.86c3.07,7.04,2.41,14.3-1.98,21.78Z"/>
    <path d="M1323.06,2275.93c32.06,30.36,48.1,70.62,48.1,120.78s-16.07,90.42-48.18,120.78c-31.25,29.48-73.49,44.22-126.72,44.22h-126.06v134.64c0,6.17-2.3,11.55-6.89,16.17-4.59,4.62-9.94,6.93-16.06,6.93h-49.81c-6.13,0-11.48-2.31-16.07-6.93-4.59-4.62-6.88-10-6.88-16.17v-204.6c0-6.16,2.31-11.55,6.93-16.17,4.62-4.62,10-6.93,16.17-6.93h195.36c29.47,0,50.59-6.34,63.36-19.05,12.76-11.38,19.14-28.91,19.14-52.56s-6.38-40.29-19.14-52.56c-13.64-12.69-34.76-19.05-63.36-19.05h-195.36c-6.17,0-11.55-2.32-16.17-6.97-4.62-4.65-6.93-10.09-6.93-16.29v-47.85c0-6.21,2.3-11.63,6.92-16.28,4.61-4.65,9.99-6.98,16.14-6.98h198.99c52.27,0,94.44,14.96,126.51,44.88Z"/>
    <path d="M1448.37,2231.05c6.6,0,12.21,2.31,16.83,6.93,4.62,4.62,6.93,10.23,6.93,16.83v48.18c0,6.6-2.31,12.21-6.93,16.83s-10.23,6.93-16.83,6.93h-67.98c-6.17,0-11.55-2.31-16.17-6.93-4.62-4.62-6.93-10.23-6.93-16.83v-48.18c0-6.6,2.31-12.21,6.93-16.83s10-6.93,16.17-6.93h67.98ZM1743.39,2231.05c6.16,0,11.55,2.31,16.17,6.93s6.93,10.23,6.93,16.83v48.18c0,6.6-2.31,12.21-6.93,16.83-4.62,4.62-10.01,6.93-16.17,6.93h-132.66v374.88c0,6.17-2.31,11.55-6.93,16.17s-10.01,6.93-16.17,6.93h-50.82c-6.6,0-12.21-2.31-16.83-6.93s-6.93-10-6.93-16.17v-446.82c0-6.6,2.31-12.21,6.93-16.83s10.23-6.93,16.83-6.93h206.58Z"/>
    <path d="M1850.86,2231.05c6.56,0,12.01,2.31,16.39,6.93,4.37,4.62,6.56,10.01,6.56,16.17v122.1c0,6.6-2.19,12.21-6.56,16.83-4.37,4.62-9.83,6.93-16.39,6.93h-49.81c-6.13,0-11.48-2.31-16.07-6.93-4.59-4.62-6.88-10.23-6.88-16.83v-122.1c0-6.16,2.29-11.55,6.88-16.17,4.59-4.62,9.94-6.93,16.07-6.93h49.81ZM1850.86,2427.07c6.56,0,12.01,2.31,16.39,6.93,4.37,4.62,6.56,10.23,6.56,16.83v246.84c0,6.17-2.19,11.55-6.56,16.17-4.37,4.62-9.83,6.93-16.39,6.93h-49.81c-6.13,0-11.48-2.31-16.07-6.93-4.59-4.62-6.88-10-6.88-16.17v-246.84c0-6.6,2.29-12.21,6.88-16.83,4.59-4.62,9.94-6.93,16.07-6.93h49.81Z"/>
    <path d="M2346.1,2241.61c4.84,6.6,5.71,13.86,2.64,21.78l-180.84,446.82c-2.21,4.85-5.18,8.48-8.91,10.89-3.74,2.42-8.03,3.63-12.87,3.63h-58.08c-11,0-18.26-4.84-21.78-14.52l-180.84-446.82c-3.53-7.48-2.87-14.74,1.98-21.78,4.84-7.03,11.22-10.56,19.14-10.56h220.44c6.16,0,11.55,2.31,16.17,6.93,4.62,4.62,6.93,10.23,6.93,16.83v48.18c0,6.6-2.31,12.21-6.93,16.83-4.62,4.62-10.01,6.93-16.17,6.93h-110.88l100.98,254.1,132.66-335.28c3.52-9.67,10.78-14.52,21.78-14.52h55.44c8.35,0,14.74,3.53,19.14,10.56Z"/>
    <path d="M2708.17,2231.05c6.6,0,12.1,2.3,16.5,6.89,4.39,4.59,6.6,9.94,6.6,16.05v47.85c0,6.56-2.21,12.13-6.6,16.72-4.4,4.59-9.9,6.88-16.5,6.88h-326.04c-6.17,0-11.55-2.29-16.17-6.88-4.62-4.59-6.93-10.16-6.93-16.72v-47.85c0-6.1,2.31-11.46,6.93-16.05s10-6.89,16.17-6.89h326.04ZM2382.13,2523.43c-6.17,0-11.55-2.31-16.17-6.93s-6.93-10-6.93-16.17v-49.5c0-6.16,2.31-11.55,6.93-16.17s10-6.93,16.17-6.93h296.34c6.6,0,12.21,2.31,16.83,6.93,4.62,4.62,6.93,10.01,6.93,16.17v49.5c0,6.17-2.31,11.55-6.93,16.17-4.62,4.62-10.23,6.93-16.83,6.93h-296.34ZM2708.17,2626.39c6.6,0,12.1,2.3,16.5,6.89,4.39,4.59,6.6,10.16,6.6,16.71v47.85c0,6.12-2.21,11.47-6.6,16.06-4.4,4.59-9.9,6.88-16.5,6.88h-326.04c-6.17,0-11.55-2.29-16.17-6.88s-6.93-9.94-6.93-16.06v-47.85c0-6.55,2.31-12.12,6.93-16.71s10-6.89,16.17-6.89h326.04Z"/>
  </g>
  <g>
    <path d="M410.92,2881.01c3.84,1.44,7.41,3.3,10.71,5.58,3.3,2.28,6.33,4.86,9.09,7.74,12.6,12.84,18.9,29.1,18.9,48.78s-6.3,36.06-18.9,48.78c-2.76,2.88-5.79,5.46-9.09,7.74-3.3,2.28-6.87,4.14-10.71,5.58-7.56,3.12-15.3,4.68-23.22,4.68h-50.94c-1.68,0-3.15-.63-4.41-1.89-1.26-1.26-1.89-2.73-1.89-4.41v-12.96c0-1.8.63-3.33,1.89-4.59,1.26-1.26,2.73-1.89,4.41-1.89h50.4c10.68,0,19.38-3.9,26.1-11.7,6.6-7.8,9.9-17.58,9.9-29.34s-3.3-21.54-9.9-29.34c-6.72-7.8-15.42-11.7-26.1-11.7h-50.4c-1.68,0-3.15-.63-4.41-1.89-1.26-1.26-1.89-2.79-1.89-4.59v-12.96c0-1.68.63-3.15,1.89-4.41,1.26-1.26,2.73-1.89,4.41-1.89h50.94c7.92,0,15.66,1.56,23.22,4.68Z" fill="#1989ac"/>
    <path d="M523.53,2876.33c1.79,0,3.28.63,4.47,1.89,1.19,1.26,1.79,2.73,1.79,4.41v33.3c0,1.8-.6,3.33-1.79,4.59-1.19,1.26-2.68,1.89-4.47,1.89h-13.58c-1.67,0-3.13-.63-4.38-1.89-1.25-1.26-1.88-2.79-1.88-4.59v-33.3c0-1.68.62-3.15,1.88-4.41,1.25-1.26,2.71-1.89,4.38-1.89h13.58ZM523.53,2929.79c1.79,0,3.28.63,4.47,1.89,1.19,1.26,1.79,2.79,1.79,4.59v67.32c0,1.68-.6,3.15-1.79,4.41-1.19,1.26-2.68,1.89-4.47,1.89h-13.58c-1.67,0-3.13-.63-4.38-1.89s-1.88-2.73-1.88-4.41v-67.32c0-1.8.62-3.33,1.88-4.59,1.25-1.26,2.71-1.89,4.38-1.89h13.58Z" fill="#1989ac"/>
    <path d="M643.89,2877.77c1.44,1.44,2.16,3.06,2.16,4.86v13.68c0,1.44-.48,2.76-1.45,3.96-.96,1.2-2.17,1.92-3.62,2.16-7.72,1.8-14.29,5.46-19.72,10.98-7.48,8.04-11.22,18.12-11.22,30.24,0,6.24.93,11.82,2.8,16.74,1.87,4.92,4.67,9.36,8.41,13.32,2.77,2.88,5.76,5.19,8.95,6.93,3.19,1.74,6.78,3.09,10.77,4.05,1.45.24,2.65.96,3.62,2.16.96,1.2,1.45,2.52,1.45,3.96l-.18,13.68c0,1.92-.78,3.54-2.33,4.86-1.2.96-2.51,1.44-3.95,1.44h-1.07c-7.06-1.32-13.58-3.54-19.56-6.66-5.98-3.12-11.43-7.26-16.33-12.42-12.45-12.84-18.67-28.86-18.67-48.06s6.24-35.4,18.72-48.24c9.72-10.2,21.72-16.5,36-18.9,1.92-.36,3.66.06,5.22,1.26ZM719.13,2939.87c.12.6.18,1.2.18,1.8v1.98c0,2.76-.18,5.82-.54,9.18-1.8,15.24-7.86,28.2-18.18,38.88-9.84,10.2-21.84,16.56-36,19.08h-1.08c-1.44,0-2.82-.48-4.14-1.44-1.44-1.44-2.16-3.06-2.16-4.86v-13.68c0-1.44.48-2.76,1.44-3.96.96-1.2,2.16-1.92,3.6-2.16,7.92-1.8,14.46-5.46,19.62-10.98,4.2-4.44,7.2-9.54,9-15.3h-38.16c-1.8,0-3.3-.6-4.5-1.8-1.2-1.2-1.8-2.7-1.8-4.5l-.18-12.78c0-1.68.61-3.15,1.83-4.41,1.22-1.26,2.75-1.89,4.58-1.89h60.2c1.68,0,3.12.57,4.32,1.71,1.2,1.14,1.86,2.55,1.98,4.23v.9ZM662.25,2902.43c-1.44-.24-2.64-.96-3.6-2.16-.96-1.2-1.44-2.52-1.44-3.96v-13.68c0-1.8.72-3.42,2.16-4.86,1.56-1.2,3.3-1.62,5.22-1.26,14.16,2.4,26.16,8.7,36,18.9,5.04,5.28,9.12,11.28,12.24,18,1.2,1.92,1.08,3.9-.36,5.94-1.2,2.04-2.94,3.06-5.22,3.06h-15.3c-2.4,0-4.2-1.02-5.4-3.06-.72-1.08-1.44-2.1-2.16-3.06-.72-.96-1.56-1.92-2.52-2.88-5.4-5.52-11.94-9.18-19.62-10.98Z" fill="#1989ac"/>
    <path d="M791.5,2876.33c1.79,0,3.28.63,4.47,1.89,1.19,1.26,1.79,2.73,1.79,4.41v33.3c0,1.8-.6,3.33-1.79,4.59-1.19,1.26-2.68,1.89-4.47,1.89h-13.58c-1.67,0-3.13-.63-4.38-1.89-1.25-1.26-1.88-2.79-1.88-4.59v-33.3c0-1.68.62-3.15,1.88-4.41,1.25-1.26,2.71-1.89,4.38-1.89h13.58ZM791.5,2929.79c1.79,0,3.28.63,4.47,1.89,1.19,1.26,1.79,2.79,1.79,4.59v67.32c0,1.68-.6,3.15-1.79,4.41-1.19,1.26-2.68,1.89-4.47,1.89h-13.58c-1.67,0-3.13-.63-4.38-1.89s-1.88-2.73-1.88-4.41v-67.32c0-1.8.62-3.33,1.88-4.59,1.25-1.26,2.71-1.89,4.38-1.89h13.58Z" fill="#1989ac"/>
    <path d="M870.94,2876.33c1.8,0,3.33.63,4.59,1.89,1.26,1.26,1.89,2.79,1.89,4.59v13.14c0,1.8-.63,3.33-1.89,4.59-1.26,1.26-2.79,1.89-4.59,1.89h-18.54c-1.68,0-3.15-.63-4.41-1.89-1.26-1.26-1.89-2.79-1.89-4.59v-13.14c0-1.8.63-3.33,1.89-4.59,1.26-1.26,2.73-1.89,4.41-1.89h18.54ZM951.4,2876.33c1.68,0,3.15.63,4.41,1.89,1.26,1.26,1.89,2.79,1.89,4.59v13.14c0,1.8-.63,3.33-1.89,4.59-1.26,1.26-2.73,1.89-4.41,1.89h-36.18v102.24c0,1.68-.63,3.15-1.89,4.41s-2.73,1.89-4.41,1.89h-13.86c-1.8,0-3.33-.63-4.59-1.89-1.26-1.26-1.89-2.73-1.89-4.41v-121.86c0-1.8.63-3.33,1.89-4.59,1.26-1.26,2.79-1.89,4.59-1.89h56.34Z" fill="#1989ac"/>
    <path d="M1108.04,3007.01c-1.32,1.92-3.06,2.88-5.22,2.88h-119.88c-2.28,0-4.02-.95-5.22-2.86-1.32-1.91-1.5-3.87-.54-5.9l5.58-13.05c.48-1.19,1.23-2.14,2.25-2.86,1.02-.71,2.19-1.07,3.51-1.07h83.88l-5.4-12.98-24.12-57.7-24.12,57.7c-.48,1.2-1.23,2.13-2.25,2.79-1.02.66-2.19.99-3.51.99h-15.12c-2.28,0-4.08-.96-5.4-2.89-1.2-1.8-1.38-3.79-.54-5.95l36.54-85.82c.48-1.32,1.23-2.31,2.25-2.97,1.02-.66,2.19-.99,3.51-.99h17.28c2.76,0,4.68,1.32,5.76,3.96l51.3,120.78c.84,1.92.66,3.9-.54,5.94Z" fill="#1989ac"/>
    <path d="M1176.39,2876.33c1.67,0,3.13.63,4.38,1.89,1.25,1.26,1.88,2.73,1.88,4.41v120.6c0,1.68-.63,3.15-1.88,4.41-1.25,1.26-2.71,1.89-4.38,1.89h-13.58c-1.67,0-3.13-.63-4.38-1.89-1.25-1.26-1.88-2.73-1.88-4.41v-120.6c0-1.68.62-3.15,1.88-4.41,1.25-1.26,2.71-1.89,4.38-1.89h13.58ZM1242.23,2983.79c1.8,0,3.3.63,4.5,1.89,1.2,1.26,1.8,2.73,1.8,4.41v13.14c0,1.68-.6,3.15-1.8,4.41-1.2,1.26-2.7,1.89-4.5,1.89h-41.94c-1.8,0-3.3-.63-4.5-1.89-1.2-1.26-1.8-2.73-1.8-4.41v-13.14c0-1.68.6-3.15,1.8-4.41,1.2-1.26,2.7-1.89,4.5-1.89h41.94Z" fill="#1989ac"/>
    <path d="M1499.31,2876.33c1.67,0,3.13.63,4.38,1.89,1.25,1.26,1.88,2.73,1.88,4.41v120.6c0,1.68-.63,3.15-1.88,4.41-1.25,1.26-2.71,1.89-4.38,1.89h-13.58c-1.79,0-3.28-.63-4.47-1.89-1.19-1.26-1.79-2.73-1.79-4.41v-81.36l-33.3,42.84c-1.32,1.56-3,2.34-5.04,2.34-2.28,0-3.96-.84-5.04-2.52l-59.04-78.12c-1.56-2.04-1.74-4.2-.54-6.48,1.19-2.4,3.04-3.6,5.54-3.6h15.73c2.02,0,3.7.84,5.01,2.52l38.25,50.4,37.35-50.4c1.31-1.68,3.04-2.52,5.19-2.52h15.74ZM1395.63,2963.63c1.67,0,3.13.6,4.38,1.8,1.25,1.2,1.88,2.7,1.88,4.5v33.3c0,1.68-.63,3.15-1.88,4.41-1.25,1.26-2.71,1.89-4.38,1.89h-13.58c-1.67,0-3.13-.63-4.38-1.89-1.25-1.26-1.88-2.73-1.88-4.41v-33.3c0-1.8.62-3.3,1.88-4.5,1.25-1.2,2.71-1.8,4.38-1.8h13.58Z" fill="#1989ac"/>
    <path d="M1684.75,3007.01c-1.32,1.92-3.06,2.88-5.22,2.88h-119.88c-2.28,0-4.02-.95-5.22-2.86-1.32-1.91-1.5-3.87-.54-5.9l5.58-13.05c.48-1.19,1.23-2.14,2.25-2.86,1.02-.71,2.19-1.07,3.51-1.07h83.88l-5.4-12.98-24.12-57.7-24.12,57.7c-.48,1.2-1.23,2.13-2.25,2.79-1.02.66-2.19.99-3.51.99h-15.12c-2.28,0-4.08-.96-5.4-2.89-1.2-1.8-1.38-3.79-.54-5.95l36.54-85.82c.48-1.32,1.23-2.31,2.25-2.97,1.02-.66,2.19-.99,3.51-.99h17.28c2.76,0,4.68,1.32,5.76,3.96l51.3,120.78c.84,1.92.66,3.9-.54,5.94Z" fill="#1989ac"/>
    <path d="M1769.48,2985.05c1.56.24,2.79.96,3.69,2.16.9,1.2,1.35,2.52,1.35,3.96v13.32c0,2.04-.72,3.66-2.16,4.86-1.2.96-2.58,1.44-4.14,1.44h-.9c-11.16-1.68-20.34-5.34-27.54-10.98-9.36-7.44-14.64-17.82-15.84-31.14-.24-1.92.3-3.54,1.62-4.86,1.2-1.44,2.76-2.16,4.68-2.16h14.22c1.68,0,3.12.57,4.32,1.71,1.2,1.14,1.86,2.55,1.98,4.23.36,6,3.3,10.62,8.82,13.86,1.44.84,2.97,1.53,4.59,2.07s3.39,1.05,5.31,1.53ZM1820.6,2943.11c5.16,3.24,9.09,7.2,11.79,11.88,2.7,4.68,4.05,9.9,4.05,15.66,0,13.56-5.16,23.94-15.48,31.14-3.6,2.64-7.77,4.74-12.51,6.3-4.74,1.56-9.99,2.64-15.75,3.24h-.72c-1.68,0-3.06-.54-4.14-1.62-1.44-1.2-2.16-2.76-2.16-4.68v-12.96c0-1.68.54-3.09,1.62-4.23,1.08-1.14,2.4-1.83,3.96-2.07,4.68-.48,8.28-1.35,10.8-2.61,2.52-1.26,4.38-2.61,5.58-4.05,1.2-1.44,1.89-2.88,2.07-4.32s.27-2.64.27-3.6c0-2.64-1.08-4.68-3.24-6.12-3.48-2.4-7.98-4.44-13.5-6.12-.48-.12-.9-.24-1.26-.36-.36-.12-.72-.24-1.08-.36l-.54-.18c-2.64-.72-5.34-1.44-8.1-2.16-2.76-.72-5.58-1.38-8.46-1.98-1.08-.24-2.22-.51-3.42-.81-1.2-.3-2.46-.63-3.78-.99-2.4-.6-4.77-1.29-7.11-2.07-2.34-.78-4.53-1.59-6.57-2.43-7.08-3-12.9-6.78-17.46-11.34-5.28-5.28-7.92-12.24-7.92-20.88,0-11.88,4.56-21.54,13.68-28.98,6.24-5.28,15-8.64,26.28-10.08,1.92-.24,3.6.3,5.04,1.62,1.32,1.32,1.98,2.88,1.98,4.68v12.96c0,1.56-.48,2.94-1.44,4.14-.96,1.2-2.22,1.92-3.78,2.16-.96.12-1.8.24-2.52.36-.72.12-1.38.3-1.98.54-3.48,1.32-6,2.64-7.56,3.96-1.32,1.2-2.28,2.46-2.88,3.78-.6,2.04-.9,3.96-.9,5.76,0,.24.06.6.18,1.08.12.48.6,1.14,1.44,1.98,1.68,1.68,4.14,3.18,7.38,4.5,1.08.48,2.28.93,3.6,1.35,1.32.42,2.64.87,3.96,1.35.84.24,1.65.45,2.43.63.78.18,1.59.39,2.43.63,2.52.6,5.04,1.23,7.56,1.89,2.52.66,5.1,1.29,7.74,1.89.96.24,1.74.42,2.34.54l1.08.36c2.4.6,4.59,1.2,6.57,1.8,1.98.6,3.87,1.2,5.67,1.8,5.64,1.92,10.56,4.26,14.76,7.02ZM1790.54,2902.43c-1.44-.36-2.61-1.11-3.51-2.25-.9-1.14-1.35-2.49-1.35-4.05v-13.14c0-1.92.78-3.54,2.34-4.86,1.44-1.2,3.12-1.62,5.04-1.26,10.56,1.68,19.14,5.28,25.74,10.8,9,7.44,13.8,16.92,14.4,28.44.12,1.68-.42,3.24-1.62,4.68-1.32,1.32-2.88,1.98-4.68,1.98h-14.04c-1.56,0-2.91-.51-4.05-1.53-1.14-1.02-1.83-2.37-2.07-4.05-.24-1.08-.57-2.31-.99-3.69-.42-1.38-1.14-2.73-2.16-4.05-1.02-1.32-2.46-2.58-4.32-3.78-1.86-1.2-4.29-2.22-7.29-3.06-.36,0-.6-.06-.72-.18h-.72Z" fill="#1989ac"/>
    <path d="M1901.96,2876.33c1.8,0,3.33.63,4.59,1.89,1.26,1.26,1.89,2.79,1.89,4.59v13.14c0,1.8-.63,3.33-1.89,4.59s-2.79,1.89-4.59,1.89h-18.54c-1.68,0-3.15-.63-4.41-1.89s-1.89-2.79-1.89-4.59v-13.14c0-1.8.63-3.33,1.89-4.59,1.26-1.26,2.73-1.89,4.41-1.89h18.54ZM1982.42,2876.33c1.68,0,3.15.63,4.41,1.89,1.26,1.26,1.89,2.79,1.89,4.59v13.14c0,1.8-.63,3.33-1.89,4.59-1.26,1.26-2.73,1.89-4.41,1.89h-36.18v102.24c0,1.68-.63,3.15-1.89,4.41s-2.73,1.89-4.41,1.89h-13.86c-1.8,0-3.33-.63-4.59-1.89-1.26-1.26-1.89-2.73-1.89-4.41v-121.86c0-1.8.63-3.33,1.89-4.59,1.26-1.26,2.79-1.89,4.59-1.89h56.34Z" fill="#1989ac"/>
    <path d="M2132.1,2876.33c1.8,0,3.3.63,4.5,1.88,1.2,1.25,1.8,2.71,1.8,4.38v13.05c0,1.79-.6,3.31-1.8,4.56-1.2,1.25-2.7,1.88-4.5,1.88h-88.92c-1.68,0-3.15-.62-4.41-1.88-1.26-1.25-1.89-2.77-1.89-4.56v-13.05c0-1.67.63-3.12,1.89-4.38,1.26-1.25,2.73-1.88,4.41-1.88h88.92ZM2043.18,2956.07c-1.68,0-3.15-.63-4.41-1.89s-1.89-2.73-1.89-4.41v-13.5c0-1.68.63-3.15,1.89-4.41s2.73-1.89,4.41-1.89h80.82c1.8,0,3.33.63,4.59,1.89,1.26,1.26,1.89,2.73,1.89,4.41v13.5c0,1.68-.63,3.15-1.89,4.41-1.26,1.26-2.79,1.89-4.59,1.89h-80.82ZM2132.1,2984.15c1.8,0,3.3.63,4.5,1.88,1.2,1.25,1.8,2.77,1.8,4.56v13.05c0,1.67-.6,3.13-1.8,4.38-1.2,1.25-2.7,1.88-4.5,1.88h-88.92c-1.68,0-3.15-.62-4.41-1.88-1.26-1.25-1.89-2.71-1.89-4.38v-13.05c0-1.79.63-3.3,1.89-4.56,1.26-1.25,2.73-1.88,4.41-1.88h88.92Z" fill="#1989ac"/>
    <path d="M2304.67,2999.81c1.32,2.16,1.38,4.32.18,6.48-1.2,2.16-3,3.24-5.4,3.24h-16.38c-2.28,0-4.02-.96-5.22-2.88l-27.44-43.38h-32.14v39.96c0,1.68-.63,3.15-1.88,4.41-1.25,1.26-2.71,1.89-4.38,1.89h-13.58c-1.67,0-3.13-.63-4.38-1.89-1.25-1.26-1.88-2.74-1.88-4.42v-59.37c0-1.68.63-3.16,1.89-4.42,1.26-1.26,2.73-1.9,4.41-1.9h55.44c10.56,0,17.58-2.97,21.06-8.91,1.2-1.9,1.8-4.63,1.8-8.2,0-5.58-1.86-9.98-5.58-13.19-3.84-3.44-9.36-5.17-16.56-5.17h-56.16c-1.68,0-3.15-.63-4.41-1.9-1.26-1.27-1.89-2.75-1.89-4.44v-13.05c0-1.69.63-3.17,1.89-4.44,1.26-1.27,2.73-1.9,4.4-1.9h57.69c13.9,0,25.1,3.96,33.61,11.88,8.74,7.92,13.12,18.66,13.12,32.22,0,17.76-7.45,29.94-22.34,36.54-.48.24-.95.45-1.43.63-.48.18-1.01.39-1.61.63l27.18,41.58Z" fill="#1989ac"/>
    <path d="M2393.24,2919.35c-1.2,2.28-3.06,3.42-5.58,3.42h-16.74c-2.16,0-3.96-.9-5.4-2.7l-23.4-33.66c-1.32-2.16-1.44-4.38-.36-6.66,1.08-2.28,2.94-3.42,5.58-3.42h16.92c2.04,0,3.78.9,5.22,2.7l23.4,33.66c1.32,2.16,1.44,4.38.36,6.66ZM2469.02,2879.75c1.32,2.28,1.2,4.5-.36,6.66l-49.86,72v46.26c0,1.68-.63,3.15-1.89,4.41s-2.73,1.89-4.41,1.89h-13.86c-1.8,0-3.33-.63-4.59-1.89s-1.89-2.73-1.89-4.41v-52.74c0-1.08.42-2.28,1.26-3.6l48.06-69.3c1.2-1.8,2.94-2.7,5.22-2.7h16.74c2.52,0,4.38,1.14,5.58,3.42Z" fill="#1989ac"/>
  </g>
</svg>