<?xml version="1.0" encoding="UTF-8"?><svg id="Layer_1" xmlns="http://www.w3.org/2000/svg" viewBox="0 0 1603.4 1479.06"><path d="M411.42,499.39c11.27,46.4,22.46,94.28,36.01,139.99,7.08,23.89,12.8,42.86,27.68,63.32,1.29,1.77,15.53,20.31,17.81,17.68l.77-85.26c-48.9-165.09-126.13-336.63-131.8-511.2-.5-15.41-1.44-33.77,6.2-47.38,30.63-.81,60.81,1.48,91.33-.17,94.53-5.12,187.89-20.98,283.05-23.95,62.86-1.96,136.94-4.6,198.49,7.43,21.11,4.12,49.44,14.91,69.48,16.52,9.29.74,13.68-.76,20.13-7.33,10.36-10.56,12.67-26.91,11.39-41.19-1.57-17.54-21.37-19.33-35.67-21.33-29.37-4.1-64.14-5.29-93.83-6.17-69.11-2.05-136.56,5.71-204.9,15.18-86.93,12.05-174.09,33.5-261.15,41.85-23.61,2.27-52.18,1.33-74.88,6.12-17.78,3.76-20.7,24.77-21.66,40.34-2.4,38.9,3.78,88.78,8.05,128.03,9.79,90.09,32.13,179.62,53.48,267.52Z" fill="#1989ac"/><path d="M538.12,996.69c30.21,7.22,63.7,15.38,92.8.18-18.46-11.08-34.89-25.46-55.01-33.97-20.67-8.73-45.05-13.86-66.95-19.05-142.22-33.65-282.33-53.1-417.98-111.02-18.28-7.8-65.29-27.71-76.04-42.96-5.75-8.16.4-16.72,4.49-24.53,8.8-16.84,20.52-33.26,29.69-50.31,47.15-87.6,81.56-183.2,128.31-271.69,29.11-55.11,66.6-121.8,108.01-167.99,12.65-14.11,28.14-27.46,40.03-41.97,11.26-13.74,16.04-28.03,2.14-42.66-4.62-4.86-19.47-15.05-25.83-16.66-11.48-2.91-18.84,6.06-25.79,13.84-16.84,18.83-34.49,46.15-48.44,67.56-90.49,138.82-130.07,306.42-197.41,456.59C22.99,727.94.55,767.05,0,782.03c-.55,15.14,26.7,30.86,38.26,37.52,103.53,59.63,223.91,96.49,337.9,131.1,53.05,16.1,108.1,33.19,161.95,46.05Z" fill="#1989ac"/><path d="M538.12,996.69c30.21,7.22,63.7,15.38,92.8.18-18.46-11.08-34.89-25.46-55.01-33.97-20.67-8.73-45.05-13.86-66.95-19.05-142.22-33.65-282.33-53.1-417.98-111.02-18.28-7.8-65.29-27.71-76.04-42.96-5.75-8.16.4-16.72,4.49-24.53,8.8-16.84,20.52-33.26,29.69-50.31,47.15-87.6,81.56-183.2,128.31-271.69,29.11-55.11,66.6-121.8,108.01-167.99,12.65-14.11,28.14-27.46,40.03-41.97,11.26-13.74,16.04-28.03,2.14-42.66-4.62-4.86-19.47-15.05-25.83-16.66-11.48-2.91-18.84,6.06-25.79,13.84-16.84,18.83-34.49,46.15-48.44,67.56-90.49,138.82-130.07,306.42-197.41,456.59C22.99,727.94.55,767.05,0,782.03c-.55,15.14,26.7,30.86,38.26,37.52,103.53,59.63,223.91,96.49,337.9,131.1,53.05,16.1,108.1,33.19,161.95,46.05Z" fill="#1989ac"/><path d="M1557.61,655.2c-85.81-47.86-178.25-80.29-271.91-109.09-61.08-18.78-123.9-37.86-185.55-54.45-28.07-7.55-69.96-20.29-98.42-17.98-8.77.71-20.38,2.57-27.78,7.19-.22,3.13,29.01,21.6,33.67,24.32,32.13,18.72,67.29,25.66,103.27,33.73,142.29,31.9,288.65,53.54,421.39,116.61,13.84,6.58,43.69,20.89,53.68,31.32,8.68,9.07,3.4,14.13-1.52,23.56-16.49,31.61-35.61,60.86-51.38,93.62-41.45,86.11-75.88,175.7-122.97,259.03-29.17,51.62-61.04,105.15-100.66,149.34-9.52,10.61-42.32,40.31-43.47,52.61-1.12,11.96,8.57,23.71,17.64,30.19,15.02,10.73,25.51,15.43,39.34.71,18.67-19.87,39.54-53.14,54.39-76.61,83.17-131.5,120.66-277.45,180.12-418.88,11.92-28.36,26.73-55.32,38.64-83.36,2.16-5.1,8.19-17.84,7.18-22.45-3.21-14.53-33-32.33-45.68-39.39Z" fill="#1989ac"/><path d="M1172.86,904.95c-10.18-39.32-24.55-109.3-52.27-138.23-2.85-2.97-7.5-5.78-10.16-9.34-.84.57-1.29,2.62-1.4,3.59-2.92,26.33-.15,54.26-1.01,80.82,48.26,159.28,118.19,319.32,130.91,487.09,1.31,17.3,2.93,40.98.89,57.87-.74,6.07-2.94,11.82-5.01,17.49-30.39-.77-60.87-3.17-91.35-1.86-56.54,2.44-115.41,11.76-172.02,16.98-81.36,7.51-161.27,9.68-243.04,7.05-50.51-1.63-85.3-15.75-132.41-23.59-12.47-2.08-18.38-.86-26.58,9.53-9.44,11.96-14.48,42.62-.97,53.02,5.76,4.43,21.51,5.87,29.12,6.88,156.73,20.82,300.07-10.36,453.16-35.58,49.21-8.11,92.94-13.44,142.7-17.3,17.24-1.34,45.62-.52,53.7-18.3,9.89-21.74,3.88-88.06,1.8-114.18-10.04-126.05-44.35-259.48-76.07-381.93Z" fill="#1989ac"/><path d="M901.45,1086.39c18.63-20.15,35.52-43.85,38.48-72.01-12.46,9.14-27.29,14.31-40.66,21.83-32.65,18.37-61.46,52.6-86.84,80.16-86.44,93.84-167.14,192.72-268.01,271.99-18.72,14.71-69.6,53.35-91.21,56.79-10.54,1.68-10.62-.13-15.68-7.84-9.77-14.91-17.59-31.84-26.78-47.22-55.6-92.99-129.18-176.45-184.97-269.03-32.26-53.54-69.57-119.41-88.09-178.91-4.82-15.49-10.61-52.25-22.4-61.6-14.61-11.58-33.42-4.78-47.05,4.6-16.94,11.66-11.99,19.6-6.02,36.48,33.64,95.1,103.57,189.62,165.79,268.21,53.17,67.15,113.41,131.62,162.77,201.23,8.86,12.49,33.69,55.23,43.49,61.51,19.62,12.56,55.45-12.01,72.61-22.78,103.35-64.84,186.89-142.8,274.61-226.39,39.36-37.51,83.33-77.36,119.99-117.01Z" fill="#1989ac"/><path d="M755.46,339.4c-33.02,32.36-74.46,64.66-90.27,109.73-1.08,3.09-4.06,10.5-2.78,13.22,2.29,4.87,5.33-.89,7.59-2.4,8.28-5.56,17.44-8.47,25.95-13.05,31.25-16.8,53.6-40.88,77.49-66.51,100.07-107.32,192.35-225.38,313.17-310.83,13.46-9.52,28.7-20.17,43.29-27.71,9.26-4.78,18.98-10.29,29.81-8.26,21.24,36.39,42.22,72.67,65.99,107.5,76.85,112.64,166.41,220.47,221.4,346.6,11.25,25.81,17.06,50.98,25.56,77.44,5.05,15.73,8.21,36.47,27.72,38.28,16.42,1.52,47.51-9.04,45.43-29.44-1.33-13-17.48-46.01-23.71-59.28-46.21-98.41-113.94-185-182.2-268.8-43.92-53.92-94.4-107.35-133.39-164.61-9.01-13.24-27.38-48.18-39.25-55.75-18.77-11.98-54.94,13.08-71.25,23.42-51.94,32.95-104.88,71.4-151.1,111.9-64.72,56.72-127.97,118.27-189.46,178.54Z" fill="#1989ac"/><path d="M918.93,734.37c-.21-4.06-5.41-10.54-6.55-14.94-2.04-7.88-1.61-16.32-4.18-24.82-6.07-20.07-28.62-46.11-46.96-56.04-8.63-4.68-15.23-4.08-24.3-6.7-5.58-1.61-10.47-4.55-15.97-6.03-23.92-6.42-58.16-1.36-79.33,11.73-8.62,5.33-7.23,9.61-13.15,15.85-6.35,6.7-15.64,11.66-22.06,18.94-12.52,14.21-21.28,40.08-23.21,58.79-1.39,13.47,3.68,15.94,6.26,27.19,1.52,6.61,1.37,13.34,2.96,20.04,5.11,21.56,25.43,46.19,43.6,58.4,11.4,7.66,17.81,6.73,29.91,10.09,31.82,8.84,46.49,16.51,79.51,1.52,20.78-9.44,57.8-46.5,66.25-67.75,5.69-14.31,7.87-30.94,7.23-46.26ZM782.39,780.41c-29.92-1.13-55.47-23.78-84.21-29.78-4.17-.87-9.37,1.29-11.24-3.76,23.12-9.83,40.89-28.78,62.08-41.91,15.28-9.47,31.51-17.38,49.92-11.57v3.97c-5.03-1.57-7.99-.59-12.77.75-20.78,5.84-34.54,29.47-51.24,41.75,17.67,11.79,33.21,27.82,54.21,33.79,2.4.68,11.12,1.57,11.61,1.89.14.09.77,2.17,1.18,2.82-6.53.66-12.89,2.3-19.55,2.05ZM797.42,746.39c6.2,4.48,15.63.98,21.88-1.85l2.63,2.33c-13.36,16.22-50.89,21.06-51.91-7.15-1-27.76,52.04-36.82,54.92-7.35-1.29,1.39-19.27-12.88-29.06-4.56-5.01,4.27-3.58,14.89,1.54,18.58ZM868.62,760.56c-15.73,10.66-39.28,32.26-58.19,34.81-6.54.88-14.75-.65-21.5,0v-2.98c36.79-3.14,45.97-43.97,76.38-56.95l.61-2.05c-28.45-13.92-46.43-48.31-80.87-50.15l-1.13-3.85c13.92-.91,26.41-1.25,39.99,2.5,32.22,8.9,58.33,44.38,90.74,52.26.89.22,1.96.85,2.81,1.16-.51.82-.11,1.96.47,3.06-17.67,2.11-34.77,12.33-49.32,22.19Z" fill="#1989ac"/></svg>